<svg version="1.2" xmlns="http://www.w3.org/2000/svg" viewBox="0 0 26 26" width="26" height="26"><style>.a{fill:#fff}</style><path class="a" d="m22.7 25.8h-19.2c-1.8 0-3.2-1.4-3.2-3.2v-19.2c0-1.8 1.4-3.2 3.2-3.2h19.2c1.8 0 3.2 1.4 3.2 3.2v19.2c0 1.8-1.4 3.2-3.2 3.2zm-9.6-17.8c-2 0-3.7 1.2-4.5 2.9q0 0 0 0.1-0.1 0.1-0.2 0.3 0 0.1 0 0.2-0.1 0.1-0.1 0.3 0 0.1 0 0.2-0.1 0.1-0.1 0.3 0 0.1 0 0.2-0.1 0.2-0.1 0.5c0 2.7 2.3 5 5 5 2.7 0 5-2.3 5-5q0-0.3-0.1-0.5 0-0.1 0-0.2 0-0.2-0.1-0.3 0-0.1 0-0.2 0-0.2-0.1-0.3 0-0.1 0-0.2-0.1-0.2-0.2-0.3 0-0.1 0-0.1c-0.8-1.7-2.5-2.9-4.5-2.9zm9.9-3.6c0-0.7-0.6-1.3-1.3-1.3h-2.5c-0.7 0-1.3 0.6-1.3 1.3v2.5c0 0.7 0.6 1.3 1.3 1.3h2.5c0.7 0 1.3-0.6 1.3-1.3zm0 6.6h-2.3q0.2 1 0.2 2.1c0 4.3-3.5 7.8-7.8 7.8-4.3 0-7.8-3.5-7.8-7.8q0-1.1 0.2-2.1h-2.3v10.7c0 0.7 0.6 1.3 1.3 1.3h17.2c0.7 0 1.3-0.6 1.3-1.3z"/></svg>